<!DOCTYPE svg PUBLIC "-//W3C//DTD SVG 1.1//EN" "http://www.w3.org/Graphics/SVG/1.1/DTD/svg11.dtd">
<!-- Uploaded to: SVG Repo, www.svgrepo.com, Transformed by: SVG Repo Mixer Tools -->
<svg fill="#ffffff" width="800px" height="800px" viewBox="0 0 24 24" id="line" data-name="Flat Color" xmlns="http://www.w3.org/2000/svg" class="icon flat-color" stroke="#ffffff">
<g id="SVGRepo_bgCarrier" stroke-width="0"/>
<g id="SVGRepo_tracerCarrier" stroke-linecap="round" stroke-linejoin="round"/>
<g id="SVGRepo_iconCarrier">
<path id="primary" d="M12,2C7,2,2,5.09,2,12a7.28,7.28,0,0,0,2.55,5.69,8.71,8.71,0,0,0,6.29,1.87,3.43,3.43,0,0,1-.35.9A1,1,0,0,0,11.2,22a4.38,4.38,0,0,0,.54,0H12A10,10,0,0,0,12,2Z" style="fill: #06c755fff;"/>
<path id="secondary" d="M14,15H10a1,1,0,0,1-1-1V8a1,1,0,0,1,2,0v5h3a1,1,0,0,1,0,2Z" style="fill: #06c755;"/>
</g>
</svg>